# Blender 4.3.2
# www.blender.org
mtllib fragileCrystal.mtl
o InnerCrystal
v 0.322521 0.571668 0.322521
v 0.322521 0.571668 -0.322521
v -0.322521 0.571668 -0.322521
v -0.322521 0.571668 0.322521
v -0.000000 1.143335 0.000000
v -0.000000 1.143335 -0.000000
v -0.522953 0.000000 -0.522953
v 0.000000 1.143335 0.000000
v 0.000000 1.143335 -0.000000
v 0.522953 0.000000 -0.522953
v -0.000000 -1.143335 0.000000
v -0.522953 -0.000000 0.522953
v -0.000000 -1.143335 -0.000000
v 0.522953 -0.000000 0.522953
v 0.000000 -1.143335 0.000000
v 0.000000 -1.143335 -0.000000
v -0.350722 -0.571667 -0.350722
v -0.350722 -0.571667 0.350722
v 0.350722 -0.571667 -0.350722
v 0.350722 -0.571667 0.350722
vn -0.0000 1.0000 -0.0000
vn -0.0000 0.4914 0.8710
vn -0.9437 0.3309 -0.0000
vn -0.0000 0.3309 -0.9437
vn 0.9437 0.3309 -0.0000
vn -0.0000 0.3309 0.9437
vn -0.9575 -0.2885 -0.0000
vn -0.0000 -0.2885 -0.9575
vn 0.9575 -0.2885 -0.0000
vn -0.0000 -0.2885 0.9575
vn -0.0000 -1.0000 -0.0000
vn 0.8710 0.4914 -0.0000
vn -0.0000 0.4914 -0.8710
vn -0.8710 0.4914 -0.0000
vn -0.0000 -0.5229 0.8524
vn 0.8524 -0.5229 -0.0000
vn -0.0000 -0.5229 -0.8524
vn -0.8524 -0.5229 -0.0000
vt 0.750000 0.625000
vt 0.750000 0.625000
vt 0.812500 0.687500
vt 0.687500 0.687500
vt 0.812500 0.562500
vt 0.875000 0.500000
vt 0.875000 0.750000
vt 0.687500 0.562500
vt 0.625000 0.500000
vt 0.625000 0.562500
vt 0.625000 0.687500
vt 0.500000 0.750000
vt 0.500000 0.500000
vt 0.625000 0.750000
vt 0.187500 0.562500
vt 0.187500 0.687500
vt 0.125000 0.750000
vt 0.125000 0.500000
vt 0.312500 0.562500
vt 0.375000 0.500000
vt 0.375000 0.687500
vt 0.375000 0.562500
vt 0.500000 0.500000
vt 0.312500 0.687500
vt 0.375000 0.750000
vt 0.250000 0.625000
vt 0.250000 0.625000
vt 0.250000 0.625000
s 0
usemtl Inner
f 9/1/1 6/1/1 5/2/1 8/1/1
f 8/1/2 5/2/2 4/3/2 1/4/2
f 4/3/3 3/5/3 7/6/3 12/7/3
f 3/5/4 2/8/4 10/9/4 7/6/4
f 2/10/5 1/11/5 14/12/5 10/13/5
f 1/4/6 4/3/6 12/7/6 14/14/6
f 17/15/7 18/16/7 12/17/7 7/18/7
f 19/19/8 17/15/8 7/18/8 10/20/8
f 20/21/9 19/22/9 10/23/9 14/12/9
f 18/16/10 20/24/10 14/25/10 12/17/10
f 13/26/11 16/27/11 15/28/11 11/26/11
f 9/1/12 8/1/12 1/11/12 2/10/12
f 6/1/13 9/1/13 2/8/13 3/5/13
f 5/2/14 6/1/14 3/5/14 4/3/14
f 11/26/15 15/28/15 20/24/15 18/16/15
f 15/28/16 16/27/16 19/22/16 20/21/16
f 16/27/17 13/26/17 17/15/17 19/19/17
f 13/26/18 11/26/18 18/16/18 17/15/18
o Crystal
v 0.616731 1.093153 0.616731
v 0.616731 1.093153 -0.616731
v -0.616731 1.093153 -0.616731
v -0.616731 1.093153 0.616731
v -0.000000 2.186305 0.000000
v -0.000000 2.186305 -0.000000
v -1.000000 0.000000 -1.000000
v 0.000000 2.186305 0.000000
v 0.000000 2.186305 -0.000000
v 1.000000 0.000000 -1.000000
v -0.000000 -2.186305 0.000000
v -1.000000 -0.000000 1.000000
v -0.000000 -2.186305 -0.000000
v 1.000000 -0.000000 1.000000
v 0.000000 -2.186305 0.000000
v 0.000000 -2.186305 -0.000000
v -0.670656 -1.093153 -0.670656
v -0.670656 -1.093152 0.670656
v 0.670656 -1.093153 -0.670656
v 0.670656 -1.093153 0.670656
vn -0.0000 1.0000 -0.0000
vn -0.0000 0.4914 0.8710
vn -0.9437 0.3309 -0.0000
vn -0.0000 0.3309 -0.9437
vn 0.9437 0.3309 -0.0000
vn -0.0000 0.3309 0.9437
vn -0.9575 -0.2885 -0.0000
vn -0.0000 -0.2885 -0.9575
vn 0.9575 -0.2885 -0.0000
vn -0.0000 -0.2885 0.9575
vn -0.0000 -1.0000 -0.0000
vn 0.8710 0.4914 -0.0000
vn -0.0000 0.4914 -0.8710
vn -0.8710 0.4914 -0.0000
vn -0.0000 -0.5229 0.8524
vn 0.8524 -0.5229 -0.0000
vn -0.0000 -0.5229 -0.8524
vn -0.8524 -0.5229 -0.0000
vt 0.750000 0.625000
vt 0.750000 0.625000
vt 0.812500 0.687500
vt 0.687500 0.687500
vt 0.812500 0.562500
vt 0.875000 0.500000
vt 0.875000 0.750000
vt 0.687500 0.562500
vt 0.625000 0.500000
vt 0.625000 0.562500
vt 0.625000 0.687500
vt 0.500000 0.750000
vt 0.500000 0.500000
vt 0.625000 0.750000
vt 0.187500 0.562500
vt 0.187500 0.687500
vt 0.125000 0.750000
vt 0.125000 0.500000
vt 0.312500 0.562500
vt 0.375000 0.500000
vt 0.375000 0.687500
vt 0.375000 0.562500
vt 0.500000 0.500000
vt 0.312500 0.687500
vt 0.375000 0.750000
vt 0.250000 0.625000
vt 0.250000 0.625000
vt 0.250000 0.625000
s 0
usemtl Outer
f 29/29/19 26/29/19 25/30/19 28/29/19
f 28/29/20 25/30/20 24/31/20 21/32/20
f 24/31/21 23/33/21 27/34/21 32/35/21
f 23/33/22 22/36/22 30/37/22 27/34/22
f 22/38/23 21/39/23 34/40/23 30/41/23
f 21/32/24 24/31/24 32/35/24 34/42/24
f 37/43/25 38/44/25 32/45/25 27/46/25
f 39/47/26 37/43/26 27/46/26 30/48/26
f 40/49/27 39/50/27 30/51/27 34/40/27
f 38/44/28 40/52/28 34/53/28 32/45/28
f 33/54/29 36/55/29 35/56/29 31/54/29
f 29/29/30 28/29/30 21/39/30 22/38/30
f 26/29/31 29/29/31 22/36/31 23/33/31
f 25/30/32 26/29/32 23/33/32 24/31/32
f 31/54/33 35/56/33 40/52/33 38/44/33
f 35/56/34 36/55/34 39/50/34 40/49/34
f 36/55/35 33/54/35 37/43/35 39/47/35
f 33/54/36 31/54/36 38/44/36 37/43/36
