# Blender 4.3.2
# www.blender.org
mtllib potion.mtl
o Jar
v 0.000000 -1.000000 0.000000
v 0.723607 -0.447220 0.525725
v -0.276388 -0.447220 0.850649
v -0.894426 -0.447216 0.000000
v -0.276388 -0.447220 -0.850649
v 0.723607 -0.447220 -0.525725
v 0.276388 0.447220 0.850649
v -0.723607 0.447220 0.525725
v -0.723607 0.447220 -0.525725
v 0.276388 0.447220 -0.850649
v 0.894426 0.447216 0.000000
v -0.341946 1.710906 0.248436
v -0.162456 -0.850654 0.499995
v 0.425323 -0.850654 0.309011
v 0.262869 -0.525738 0.809012
v 0.850648 -0.525736 0.000000
v 0.425323 -0.850654 -0.309011
v -0.525730 -0.850652 0.000000
v -0.688189 -0.525736 0.499997
v -0.162456 -0.850654 -0.499995
v -0.688189 -0.525736 -0.499997
v 0.262869 -0.525738 -0.809012
v 0.951058 0.000000 0.309013
v 0.951058 0.000000 -0.309013
v 0.000000 0.000000 1.000000
v 0.587786 0.000000 0.809017
v -0.951058 0.000000 0.309013
v -0.587786 0.000000 0.809017
v -0.587786 0.000000 -0.809017
v -0.951058 0.000000 -0.309013
v 0.587786 0.000000 -0.809017
v 0.000000 0.000000 -1.000000
v 0.688189 0.525736 0.499997
v -0.262869 0.525738 0.809012
v -0.850648 0.525736 0.000000
v -0.262869 0.525738 -0.809012
v 0.688189 0.525736 -0.499997
v 0.130609 0.825037 0.401981
v 0.422671 0.825035 0.000000
v -0.341947 0.825037 0.248436
v -0.341947 0.825037 -0.248436
v 0.130609 0.825037 -0.401981
v 0.291248 1.884975 -0.000000
v 0.089999 1.884977 0.276992
v -0.235624 1.884977 0.171189
v -0.235624 1.884977 -0.171189
v 0.089999 1.884977 -0.276992
v 0.130610 1.710906 0.401981
v 0.422671 1.710904 -0.000000
v 0.130610 1.710906 -0.401981
v -0.341946 1.710906 -0.248436
v -0.431583 1.710906 0.313560
v -0.431583 1.884908 0.313560
v 0.533468 1.710904 -0.000000
v 0.533468 1.884906 -0.000000
v -0.431583 1.710906 -0.313560
v -0.431583 1.884908 -0.313560
v 0.164847 1.884908 -0.507355
v 0.164847 1.884908 0.507355
v 0.164847 1.710906 0.507355
v 0.164847 1.710906 -0.507355
v 0.291249 2.019494 -0.000000
v 0.000000 2.020407 -0.000000
v 0.089999 2.019496 0.276992
v -0.235624 2.019495 0.171189
v -0.235624 2.019495 -0.171189
v 0.089999 2.019496 -0.276992
v 0.291248 1.624326 -0.000000
v 0.089999 1.624328 0.276992
v -0.235624 1.624328 0.171189
v -0.235624 1.624328 -0.171189
v 0.089999 1.624328 -0.276992
vn 0.1024 -0.9435 0.3151
vn 0.7002 -0.6617 0.2680
vn -0.2680 -0.9435 0.1947
vn -0.2680 -0.9435 -0.1947
vn 0.1024 -0.9435 -0.3151
vn 0.9050 -0.3304 0.2680
vn 0.0247 -0.3304 0.9435
vn -0.8897 -0.3304 0.3151
vn -0.5746 -0.3304 -0.7488
vn 0.5346 -0.3304 -0.7779
vn 0.8026 -0.1256 0.5831
vn -0.3066 -0.1256 0.9435
vn -0.9921 -0.1256 -0.0000
vn -0.3066 -0.1256 -0.9435
vn 0.8026 -0.1256 -0.5831
vn 0.3189 0.7735 0.5477
vn -0.4224 0.7735 0.4726
vn -0.5800 0.7735 -0.2557
vn 0.0639 0.7735 -0.6306
vn 0.6195 0.7735 -0.1340
vn -0.0001 1.0000 0.0003
vn 0.4103 0.8619 -0.2981
vn 0.3189 0.7735 -0.5477
vn -0.0000 -1.0000 -0.0000
vn -0.1567 0.8619 -0.4823
vn -0.4224 0.7735 -0.4726
vn -0.0003 1.0000 -0.0000
vn -0.5071 0.8619 -0.0000
vn -0.5800 0.7735 0.2557
vn -0.1567 0.8619 0.4823
vn 0.0639 0.7735 0.6306
vn -0.0001 1.0000 -0.0003
vn 0.4103 0.8619 0.2981
vn 0.6195 0.7735 0.1340
vn 0.8897 0.3304 -0.3151
vn 0.7947 0.1876 -0.5773
vn 0.5746 0.3304 -0.7488
vn -0.0247 0.3304 -0.9435
vn -0.3035 0.1876 -0.9342
vn -0.5346 0.3304 -0.7779
vn -0.9050 0.3304 -0.2680
vn -0.9822 0.1876 -0.0000
vn -0.9050 0.3304 0.2680
vn -0.5346 0.3304 0.7779
vn -0.3035 0.1876 0.9342
vn -0.0247 0.3304 0.9435
vn 0.5746 0.3304 0.7488
vn 0.7947 0.1876 0.5773
vn 0.8897 0.3304 0.3151
vn 0.3066 0.1256 -0.9435
vn 0.3035 -0.1876 -0.9342
vn 0.0247 -0.3304 -0.9435
vn -0.8026 0.1256 -0.5831
vn -0.7947 -0.1876 -0.5773
vn -0.8897 -0.3304 -0.3151
vn -0.8026 0.1256 0.5831
vn -0.7947 -0.1876 0.5773
vn -0.5746 -0.3304 0.7488
vn 0.3066 0.1256 0.9435
vn 0.3035 -0.1876 0.9342
vn 0.5346 -0.3304 0.7779
vn 0.9921 0.1256 -0.0000
vn 0.9822 -0.1876 -0.0000
vn 0.9050 -0.3304 -0.2680
vn 0.4713 -0.6617 -0.5831
vn 0.1876 -0.7947 -0.5773
vn -0.0385 -0.6617 -0.7488
vn -0.4089 -0.6617 -0.6284
vn -0.4911 -0.7947 -0.3568
vn -0.7240 -0.6617 -0.1947
vn -0.7240 -0.6617 0.1947
vn -0.4911 -0.7947 0.3568
vn -0.4089 -0.6617 0.6284
vn 0.7002 -0.6617 -0.2680
vn 0.6071 -0.7947 -0.0000
vn 0.3313 -0.9435 -0.0000
vn -0.0385 -0.6617 0.7488
vn 0.1876 -0.7947 0.5773
vn 0.4713 -0.6617 0.5831
vn 0.8090 -0.0000 0.5878
vn -0.3090 -0.0000 -0.9511
vn -0.3090 -0.0000 0.9511
vn 0.8090 -0.0000 -0.5878
vn -1.0000 -0.0000 -0.0000
vn 0.0003 1.0000 -0.0002
vn 0.0003 1.0000 0.0002
vn 0.0031 1.0000 -0.0023
vn -0.0012 1.0000 -0.0037
vn -0.0039 1.0000 -0.0000
vn -0.0012 1.0000 0.0037
vn 0.0031 1.0000 0.0023
vn -0.8090 -0.0000 -0.5878
vn -0.8090 -0.0000 0.5878
vn -0.0000 1.0000 -0.0000
vt 0.181819 0.000000
vt 0.227273 0.078731
vt 0.136365 0.078731
vt 0.272728 0.157461
vt 0.318182 0.078731
vt 0.363637 0.157461
vt 0.909091 0.000000
vt 0.954545 0.078731
vt 0.863636 0.078731
vt 0.727273 0.000000
vt 0.772727 0.078731
vt 0.681818 0.078731
vt 0.545455 0.000000
vt 0.590909 0.078731
vt 0.500000 0.078731
vt 0.318182 0.236191
vt 0.090910 0.157461
vt 0.181819 0.157461
vt 0.136365 0.236191
vt 0.818182 0.157461
vt 0.909091 0.157461
vt 0.863636 0.236191
vt 0.636364 0.157461
vt 0.727273 0.157461
vt 0.681818 0.236191
vt 0.454546 0.157461
vt 0.545455 0.157461
vt 0.500000 0.236191
vt 0.227273 0.236191
vt 0.045455 0.236191
vt 0.772727 0.236191
vt 0.590909 0.236191
vt 0.409092 0.236191
vt 0.181819 0.314921
vt 0.272728 0.314921
vt 0.227273 0.393651
vt 0.000000 0.314921
vt 0.090910 0.314921
vt 0.045455 0.393651
vt 0.727273 0.314921
vt 0.818182 0.314921
vt 0.772727 0.393651
vt 0.545455 0.314921
vt 0.636364 0.314921
vt 0.590909 0.393651
vt 0.363637 0.314921
vt 0.454546 0.314921
vt 0.409092 0.393651
vt 0.136365 0.393651
vt 0.500000 0.393651
vt 0.409091 0.393651
vt 0.681818 0.393651
vt 0.863636 0.393651
vt 0.909091 0.314921
vt 0.318182 0.393651
vt 0.954545 0.236191
vt 1.000000 0.157461
vt 0.409092 0.078731
vt 0.363637 0.000000
vt 0.454546 0.472382
vt 0.636364 0.472382
vt 0.818182 0.472382
vt 0.090910 0.472382
vt 0.272728 0.472382
s 0
usemtl Glass
f 1/1/1 14/2/1 13/3/1
f 2/4/2 14/5/2 16/6/2
f 1/7/3 13/8/3 18/9/3
f 1/10/4 18/11/4 20/12/4
f 1/13/5 20/14/5 17/15/5
f 2/4/6 16/6/6 23/16/6
f 3/17/7 15/18/7 25/19/7
f 4/20/8 19/21/8 27/22/8
f 5/23/9 21/24/9 29/25/9
f 6/26/10 22/27/10 31/28/10
f 2/4/11 23/16/11 26/29/11
f 3/17/12 25/19/12 28/30/12
f 4/20/13 27/22/13 30/31/13
f 5/23/14 29/25/14 32/32/14
f 6/26/15 31/28/15 24/33/15
f 7/34/16 33/35/16 38/36/16
f 8/37/17 34/38/17 40/39/17
f 9/40/18 35/41/18 41/42/18
f 10/43/19 36/44/19 42/45/19
f 11/46/20 37/47/20 39/48/20
f 44/49/21 45/39/21 53/39/21 59/49/21
f 39/48/22 37/47/22 42/50/22
f 37/47/23 10/43/23 42/50/23
f 49/51/24 50/50/24 61/50/24 54/51/24
f 42/45/25 36/44/25 41/52/25
f 36/44/26 9/40/26 41/52/26
f 45/53/27 46/42/27 57/42/27 53/53/27
f 41/42/28 35/41/28 40/53/28
f 35/41/29 8/54/29 40/53/29
f 51/42/24 12/53/24 52/53/24 56/42/24
f 40/39/30 34/38/30 38/49/30
f 34/38/31 7/34/31 38/49/31
f 46/52/32 47/45/32 58/45/32 57/52/32
f 38/36/33 33/35/33 39/55/33
f 33/35/34 11/46/34 39/55/34
f 24/33/35 37/47/35 11/46/35
f 24/33/36 31/28/36 37/47/36
f 31/28/37 10/43/37 37/47/37
f 32/32/38 36/44/38 10/43/38
f 32/32/39 29/25/39 36/44/39
f 29/25/40 9/40/40 36/44/40
f 30/31/41 35/41/41 9/40/41
f 30/31/42 27/22/42 35/41/42
f 27/22/43 8/54/43 35/41/43
f 28/30/44 34/38/44 8/37/44
f 28/30/45 25/19/45 34/38/45
f 25/19/46 7/34/46 34/38/46
f 26/29/47 33/35/47 7/34/47
f 26/29/48 23/16/48 33/35/48
f 23/16/49 11/46/49 33/35/49
f 31/28/50 32/32/50 10/43/50
f 31/28/51 22/27/51 32/32/51
f 22/27/52 5/23/52 32/32/52
f 29/25/53 30/31/53 9/40/53
f 29/25/54 21/24/54 30/31/54
f 21/24/55 4/20/55 30/31/55
f 27/22/56 28/56/56 8/54/56
f 27/22/57 19/21/57 28/56/57
f 19/21/58 3/57/58 28/56/58
f 25/19/59 26/29/59 7/34/59
f 25/19/60 15/18/60 26/29/60
f 15/18/61 2/4/61 26/29/61
f 23/16/62 24/33/62 11/46/62
f 23/16/63 16/6/63 24/33/63
f 16/6/64 6/26/64 24/33/64
f 17/15/65 22/27/65 6/26/65
f 17/15/66 20/14/66 22/27/66
f 20/14/67 5/23/67 22/27/67
f 20/12/68 21/24/68 5/23/68
f 20/12/69 18/11/69 21/24/69
f 18/11/70 4/20/70 21/24/70
f 18/9/71 19/21/71 4/20/71
f 18/9/72 13/8/72 19/21/72
f 13/8/73 3/57/73 19/21/73
f 16/6/74 17/58/74 6/26/74
f 16/6/75 14/5/75 17/58/75
f 14/5/76 1/59/76 17/58/76
f 13/3/77 15/18/77 3/17/77
f 13/3/78 14/2/78 15/18/78
f 14/2/79 2/4/79 15/18/79
f 42/45/81 41/52/81 51/52/81 50/45/81
f 38/36/80 39/55/80 49/55/80 48/36/80
f 41/42/84 40/53/84 12/53/84 51/42/84
f 39/48/83 42/50/83 50/50/83 49/51/83
f 40/39/82 38/49/82 48/49/82 12/39/82
f 52/39/82 60/49/82 59/49/82 53/39/82
f 54/51/83 61/50/83 58/50/83 55/48/83
f 56/42/84 52/53/84 53/53/84 57/42/84
f 60/36/80 54/55/80 55/55/80 59/36/80
f 61/45/81 56/52/81 57/52/81 58/45/81
f 50/45/24 51/52/24 56/52/24 61/45/24
f 47/50/85 43/48/85 55/48/85 58/50/85
f 12/39/24 48/49/24 60/49/24 52/39/24
f 43/55/86 44/36/86 59/36/86 55/55/86
f 48/36/24 49/55/24 54/55/24 60/36/24
usemtl Cork
f 44/36/80 43/55/80 62/55/80 64/36/80
f 47/45/81 46/52/81 66/52/81 67/45/81
f 45/39/82 44/49/82 64/49/82 65/39/82
f 43/48/83 47/50/83 67/50/83 62/48/83
f 46/42/84 45/53/84 65/53/84 66/42/84
f 62/48/87 67/50/87 63/60/87
f 67/45/88 66/52/88 63/61/88
f 66/42/89 65/53/89 63/62/89
f 65/39/90 64/49/90 63/63/90
f 64/36/91 62/55/91 63/64/91
f 44/36/92 43/55/92 68/55/92 69/36/92
f 45/53/84 46/42/84 71/42/84 70/53/84
f 43/48/93 47/50/93 72/50/93 68/48/93
f 44/49/82 45/39/82 70/39/82 69/49/82
f 46/52/81 47/45/81 72/45/81 71/52/81
f 68/55/94 72/45/94 71/42/94 70/39/94 69/36/94
o Jija
v -0.000000 -0.793916 0.000000
v 0.586739 -0.345692 0.426286
v -0.224110 -0.345692 0.689751
v -0.725248 -0.345689 0.000000
v -0.224110 -0.345692 -0.689751
v 0.586739 -0.345692 -0.426286
v 0.224110 0.379567 0.689751
v -0.586739 0.379566 0.426286
v -0.586739 0.379566 -0.426286
v 0.224110 0.379567 -0.689751
v 0.725248 0.379563 0.000000
v -0.277268 1.107652 0.201445
v -0.131728 -0.672818 0.405423
v 0.344874 -0.672818 0.250563
v 0.213148 -0.409359 0.655989
v 0.689750 -0.409357 0.000000
v 0.344874 -0.672818 -0.250563
v -0.426290 -0.672816 0.000000
v -0.558020 -0.409357 0.405424
v -0.131728 -0.672818 -0.405423
v -0.558020 -0.409357 -0.405424
v 0.213148 -0.409359 -0.655989
v 0.771168 0.016937 0.250564
v 0.771168 0.016937 -0.250564
v -0.000000 0.016937 0.810853
v 0.476608 0.016937 0.655994
v -0.771168 0.016937 0.250564
v -0.476608 0.016937 0.655994
v -0.476608 0.016937 -0.655994
v -0.771168 0.016937 -0.250564
v 0.476608 0.016937 -0.655994
v -0.000000 0.016937 -0.810853
v 0.558020 0.443232 0.405424
v -0.213148 0.443233 0.655989
v -0.689750 0.443232 0.000000
v -0.213148 0.443233 -0.655989
v 0.558020 0.443232 -0.405424
v 0.105905 0.685921 0.325947
v 0.342724 0.685919 0.000000
v -0.277268 0.685921 0.201445
v -0.277268 0.685921 -0.201445
v 0.105905 0.685921 -0.325947
v 0.105905 1.107653 0.325947
v 0.342724 1.107651 -0.000000
v 0.105905 1.107653 -0.325947
v -0.277268 1.107652 -0.201445
vn 0.1024 -0.9435 0.3151
vn 0.7002 -0.6617 0.2680
vn -0.2680 -0.9435 0.1947
vn -0.2680 -0.9435 -0.1947
vn 0.1024 -0.9435 -0.3151
vn 0.9050 -0.3304 0.2680
vn 0.0247 -0.3304 0.9435
vn -0.8897 -0.3304 0.3151
vn -0.5746 -0.3304 -0.7488
vn 0.5346 -0.3304 -0.7779
vn 0.8026 -0.1256 0.5831
vn -0.3066 -0.1256 0.9435
vn -0.9921 -0.1256 -0.0000
vn -0.3066 -0.1256 -0.9435
vn 0.8026 -0.1256 -0.5831
vn 0.3189 0.7735 0.5477
vn -0.4224 0.7735 0.4726
vn -0.5800 0.7735 -0.2557
vn 0.0639 0.7735 -0.6306
vn 0.6195 0.7735 -0.1340
vn 0.4103 0.8619 -0.2981
vn 0.3189 0.7735 -0.5477
vn -0.1567 0.8619 -0.4823
vn -0.4224 0.7735 -0.4726
vn -0.5071 0.8619 -0.0000
vn -0.5800 0.7735 0.2557
vn -0.1567 0.8619 0.4823
vn 0.0639 0.7735 0.6306
vn 0.4103 0.8619 0.2981
vn 0.6195 0.7735 0.1340
vn 0.8897 0.3304 -0.3151
vn 0.7947 0.1876 -0.5773
vn 0.5746 0.3304 -0.7488
vn -0.0247 0.3304 -0.9435
vn -0.3035 0.1876 -0.9342
vn -0.5346 0.3304 -0.7779
vn -0.9050 0.3304 -0.2680
vn -0.9822 0.1876 -0.0000
vn -0.9050 0.3304 0.2680
vn -0.5346 0.3304 0.7779
vn -0.3035 0.1876 0.9342
vn -0.0247 0.3304 0.9435
vn 0.5746 0.3304 0.7488
vn 0.7947 0.1876 0.5773
vn 0.8897 0.3304 0.3151
vn 0.3066 0.1256 -0.9435
vn 0.3035 -0.1876 -0.9342
vn 0.0247 -0.3304 -0.9435
vn -0.8026 0.1256 -0.5831
vn -0.7947 -0.1876 -0.5773
vn -0.8897 -0.3304 -0.3151
vn -0.8026 0.1256 0.5831
vn -0.7947 -0.1876 0.5773
vn -0.5746 -0.3304 0.7488
vn 0.3066 0.1256 0.9435
vn 0.3035 -0.1876 0.9342
vn 0.5346 -0.3304 0.7779
vn 0.9921 0.1256 -0.0000
vn 0.9822 -0.1876 -0.0000
vn 0.9050 -0.3304 -0.2680
vn 0.4713 -0.6617 -0.5831
vn 0.1876 -0.7947 -0.5773
vn -0.0385 -0.6617 -0.7488
vn -0.4089 -0.6617 -0.6284
vn -0.4911 -0.7947 -0.3568
vn -0.7240 -0.6617 -0.1947
vn -0.7240 -0.6617 0.1947
vn -0.4911 -0.7947 0.3568
vn -0.4089 -0.6617 0.6284
vn 0.7002 -0.6617 -0.2680
vn 0.6071 -0.7947 -0.0000
vn 0.3313 -0.9435 -0.0000
vn -0.0385 -0.6617 0.7488
vn 0.1876 -0.7947 0.5773
vn 0.4713 -0.6617 0.5831
vn -0.3090 -0.0000 -0.9511
vn 0.8090 -0.0000 0.5878
vn -1.0000 -0.0000 -0.0000
vn 0.8090 -0.0000 -0.5878
vn -0.3090 -0.0000 0.9511
vn -0.0000 1.0000 -0.0000
vt 0.181819 0.000000
vt 0.227273 0.078731
vt 0.136365 0.078731
vt 0.272728 0.157461
vt 0.318182 0.078731
vt 0.363637 0.157461
vt 0.909091 0.000000
vt 0.954545 0.078731
vt 0.863636 0.078731
vt 0.727273 0.000000
vt 0.772727 0.078731
vt 0.681818 0.078731
vt 0.545455 0.000000
vt 0.590909 0.078731
vt 0.500000 0.078731
vt 0.318182 0.236191
vt 0.090910 0.157461
vt 0.181819 0.157461
vt 0.136365 0.236191
vt 0.818182 0.157461
vt 0.909091 0.157461
vt 0.863636 0.236191
vt 0.636364 0.157461
vt 0.727273 0.157461
vt 0.681818 0.236191
vt 0.454546 0.157461
vt 0.545455 0.157461
vt 0.500000 0.236191
vt 0.227273 0.236191
vt 0.045455 0.236191
vt 0.772727 0.236191
vt 0.590909 0.236191
vt 0.409092 0.236191
vt 0.181819 0.314921
vt 0.272728 0.314921
vt 0.227273 0.393651
vt 0.000000 0.314921
vt 0.090910 0.314921
vt 0.045455 0.393651
vt 0.727273 0.314921
vt 0.818182 0.314921
vt 0.772727 0.393651
vt 0.545455 0.314921
vt 0.636364 0.314921
vt 0.590909 0.393651
vt 0.363637 0.314921
vt 0.454546 0.314921
vt 0.409092 0.393651
vt 0.500000 0.393651
vt 0.681818 0.393651
vt 0.863636 0.393651
vt 0.909091 0.314921
vt 0.136365 0.393651
vt 0.318182 0.393651
vt 0.954545 0.236191
vt 1.000000 0.157461
vt 0.409092 0.078731
vt 0.363637 0.000000
vt 0.409091 0.393651
s 0
usemtl Jija
f 73/65/95 86/66/95 85/67/95
f 74/68/96 86/69/96 88/70/96
f 73/71/97 85/72/97 90/73/97
f 73/74/98 90/75/98 92/76/98
f 73/77/99 92/78/99 89/79/99
f 74/68/100 88/70/100 95/80/100
f 75/81/101 87/82/101 97/83/101
f 76/84/102 91/85/102 99/86/102
f 77/87/103 93/88/103 101/89/103
f 78/90/104 94/91/104 103/92/104
f 74/68/105 95/80/105 98/93/105
f 75/81/106 97/83/106 100/94/106
f 76/84/107 99/86/107 102/95/107
f 77/87/108 101/89/108 104/96/108
f 78/90/109 103/92/109 96/97/109
f 79/98/110 105/99/110 110/100/110
f 80/101/111 106/102/111 112/103/111
f 81/104/112 107/105/112 113/106/112
f 82/107/113 108/108/113 114/109/113
f 83/110/114 109/111/114 111/112/114
f 111/112/115 109/111/115 114/113/115
f 109/111/116 82/107/116 114/113/116
f 114/109/117 108/108/117 113/114/117
f 108/108/118 81/104/118 113/114/118
f 113/106/119 107/105/119 112/115/119
f 107/105/120 80/116/120 112/115/120
f 112/103/121 106/102/121 110/117/121
f 106/102/122 79/98/122 110/117/122
f 110/100/123 105/99/123 111/118/123
f 105/99/124 83/110/124 111/118/124
f 96/97/125 109/111/125 83/110/125
f 96/97/126 103/92/126 109/111/126
f 103/92/127 82/107/127 109/111/127
f 104/96/128 108/108/128 82/107/128
f 104/96/129 101/89/129 108/108/129
f 101/89/130 81/104/130 108/108/130
f 102/95/131 107/105/131 81/104/131
f 102/95/132 99/86/132 107/105/132
f 99/86/133 80/116/133 107/105/133
f 100/94/134 106/102/134 80/101/134
f 100/94/135 97/83/135 106/102/135
f 97/83/136 79/98/136 106/102/136
f 98/93/137 105/99/137 79/98/137
f 98/93/138 95/80/138 105/99/138
f 95/80/139 83/110/139 105/99/139
f 103/92/140 104/96/140 82/107/140
f 103/92/141 94/91/141 104/96/141
f 94/91/142 77/87/142 104/96/142
f 101/89/143 102/95/143 81/104/143
f 101/89/144 93/88/144 102/95/144
f 93/88/145 76/84/145 102/95/145
f 99/86/146 100/119/146 80/116/146
f 99/86/147 91/85/147 100/119/147
f 91/85/148 75/120/148 100/119/148
f 97/83/149 98/93/149 79/98/149
f 97/83/150 87/82/150 98/93/150
f 87/82/151 74/68/151 98/93/151
f 95/80/152 96/97/152 83/110/152
f 95/80/153 88/70/153 96/97/153
f 88/70/154 78/90/154 96/97/154
f 89/79/155 94/91/155 78/90/155
f 89/79/156 92/78/156 94/91/156
f 92/78/157 77/87/157 94/91/157
f 92/76/158 93/88/158 77/87/158
f 92/76/159 90/75/159 93/88/159
f 90/75/160 76/84/160 93/88/160
f 90/73/161 91/85/161 76/84/161
f 90/73/162 85/72/162 91/85/162
f 85/72/163 75/120/163 91/85/163
f 88/70/164 89/121/164 78/90/164
f 88/70/165 86/69/165 89/121/165
f 86/69/166 73/122/166 89/121/166
f 85/67/167 87/82/167 75/81/167
f 85/67/168 86/66/168 87/82/168
f 86/66/169 74/68/169 87/82/169
f 114/109/170 113/114/170 118/114/170 117/109/170
f 110/100/171 111/118/171 116/118/171 115/100/171
f 113/106/172 112/115/172 84/115/172 118/106/172
f 111/112/173 114/113/173 117/113/173 116/123/173
f 112/103/174 110/117/174 115/117/174 84/103/174
f 118/106/175 84/115/175 115/117/175 116/118/175 117/113/175
