# Blender 4.3.2
# www.blender.org
mtllib slime.mtl
o Slime
v 0.995561 0.609837 0.597440
v 1.122311 0.452585 0.446386
v 1.192651 0.225350 0.362557
v 1.079660 0.609837 0.743103
v 1.273851 0.452585 0.708862
v 1.381619 0.225350 0.689859
v 1.050453 0.609837 0.908745
v 1.221222 0.452585 1.007339
v 1.315991 0.225350 1.062054
v 0.921606 0.609837 1.016860
v 0.989048 0.452585 1.202156
v 1.026475 0.225350 1.304987
v 0.837507 0.665959 0.785801
v 0.753409 0.609837 1.016860
v 0.685967 0.452585 1.202156
v 0.648539 0.225350 1.304987
v 0.624562 0.609837 0.908745
v 0.453793 0.452585 1.007339
v 0.359023 0.225350 1.062054
v 0.595355 0.609837 0.743103
v 0.401163 0.452585 0.708862
v 0.293395 0.225350 0.689859
v 0.679453 0.609837 0.597440
v 0.552704 0.452585 0.446386
v 0.482363 0.225350 0.362557
v 0.837507 0.609837 0.539913
v 0.837507 0.452585 0.342726
v 0.837507 0.225350 0.233295
v 0.278895 0.900969 -0.332374
v 0.502552 0.623490 -0.598918
v 0.626672 0.222521 -0.746838
v 0.427292 0.900969 -0.075343
v 0.769954 0.623490 -0.135764
v 0.960116 0.222521 -0.169295
v 0.375754 0.900969 0.216942
v 0.677086 0.623490 0.390916
v 0.844312 0.222521 0.487464
v 0.148397 0.900969 0.407717
v 0.267402 0.623490 0.734681
v 0.333445 0.222521 0.916132
v 0.000000 1.000000 -0.000000
v -0.148397 0.900969 0.407717
v -0.267402 0.623490 0.734681
v -0.333445 0.222521 0.916132
v -0.375754 0.900969 0.216942
v -0.677086 0.623490 0.390916
v -0.844312 0.222521 0.487464
v -0.427292 0.900969 -0.075343
v -0.769953 0.623490 -0.135764
v -0.960116 0.222521 -0.169294
v -0.278895 0.900969 -0.332374
v -0.502551 0.623490 -0.598917
v -0.626671 0.222521 -0.746838
v -0.000000 0.900969 -0.433884
v -0.000000 0.623490 -0.781831
v -0.000000 0.222521 -0.974928
v 0.089421 0.448083 0.975479
v 0.161131 0.359116 0.890018
v 0.200927 0.230555 0.842591
v 0.137001 0.448083 1.057890
v 0.246867 0.359116 1.038517
v 0.307838 0.230555 1.027766
v 0.120477 0.448083 1.151604
v 0.217091 0.359116 1.207384
v 0.270708 0.230555 1.238340
v 0.047580 0.448083 1.212771
v 0.085736 0.359116 1.317604
v 0.106911 0.230555 1.375782
v 0.000000 0.479835 1.082047
v -0.047580 0.448083 1.212771
v -0.085736 0.359116 1.317604
v -0.106911 0.230555 1.375782
v -0.120476 0.448083 1.151604
v -0.217091 0.359116 1.207384
v -0.270708 0.230555 1.238340
v -0.137001 0.448083 1.057890
v -0.246867 0.359116 1.038517
v -0.307838 0.230555 1.027766
v -0.089421 0.448083 0.975479
v -0.161131 0.359116 0.890018
v -0.200927 0.230555 0.842591
v 0.000000 0.448083 0.942932
v 0.000000 0.359116 0.831371
v 0.000000 0.230555 0.769460
vn 0.3116 0.4123 -0.8561
vn 0.0807 0.9717 -0.2218
vn 0.2213 0.7624 -0.6080
vn 0.5604 0.7624 -0.3235
vn 0.7890 0.4123 -0.4555
vn 0.2044 0.9717 -0.1180
vn 0.8972 0.4123 0.1582
vn 0.2324 0.9717 0.0410
vn 0.6372 0.7624 0.1124
vn 0.5856 0.4123 0.6979
vn 0.1517 0.9717 0.1808
vn 0.4159 0.7624 0.4957
vn -0.0000 0.4123 0.9111
vn -0.0000 0.9717 0.2360
vn -0.0000 0.7624 0.6471
vn -0.4159 0.7624 0.4957
vn -0.5856 0.4123 0.6979
vn -0.1517 0.9717 0.1808
vn -0.6372 0.7624 0.1124
vn -0.8972 0.4123 0.1582
vn -0.2324 0.9717 0.0410
vn -0.5604 0.7624 -0.3235
vn -0.7890 0.4123 -0.4555
vn -0.2044 0.9717 -0.1180
vn -0.3116 0.4123 -0.8561
vn -0.0807 0.9717 -0.2218
vn -0.0000 -1.0000 -0.0000
vn -0.2213 0.7624 -0.6080
vt 0.666667 0.571429
vt 0.666667 0.714286
vt 0.555556 0.714286
vt 0.555556 0.571429
vt 0.666667 0.857143
vt 0.611111 1.000000
vt 0.555556 0.857143
vt 0.444444 0.857143
vt 0.444444 0.714286
vt 0.444444 0.571429
vt 0.500000 1.000000
vt 0.333333 0.714286
vt 0.333333 0.571429
vt 0.388889 1.000000
vt 0.333333 0.857143
vt 0.222222 0.714286
vt 0.222222 0.571429
vt 0.277778 1.000000
vt 0.222222 0.857143
vt 0.111111 0.714286
vt 0.111111 0.571429
vt 0.166667 1.000000
vt 0.111111 0.857143
vt 0.000000 0.857143
vt 0.000000 0.714286
vt 0.000000 0.571429
vt 0.055556 1.000000
vt 1.000000 0.714286
vt 1.000000 0.857143
vt 0.888889 0.857143
vt 0.888889 0.714286
vt 1.000000 0.571429
vt 0.888889 0.571429
vt 0.944444 1.000000
vt 0.777778 0.857143
vt 0.777778 0.714286
vt 0.777778 0.571429
vt 0.833333 1.000000
vt 0.722222 1.000000
s 0
usemtl Slime
f 28/1/1 27/2/1 2/3/1 3/4/1
f 26/5/2 13/6/2 1/7/2
f 27/2/3 26/5/3 1/7/3 2/3/3
f 2/3/4 1/7/4 4/8/4 5/9/4
f 3/4/5 2/3/5 5/9/5 6/10/5
f 1/7/6 13/11/6 4/8/6
f 6/10/7 5/9/7 8/12/7 9/13/7
f 4/8/8 13/14/8 7/15/8
f 5/9/9 4/8/9 7/15/9 8/12/9
f 9/13/10 8/12/10 11/16/10 12/17/10
f 7/15/11 13/18/11 10/19/11
f 8/12/12 7/15/12 10/19/12 11/16/12
f 12/17/13 11/16/13 15/20/13 16/21/13
f 10/19/14 13/22/14 14/23/14
f 11/16/15 10/19/15 14/23/15 15/20/15
f 15/20/16 14/23/16 17/24/16 18/25/16
f 16/21/17 15/20/17 18/25/17 19/26/17
f 14/23/18 13/27/18 17/24/18
f 18/28/19 17/29/19 20/30/19 21/31/19
f 19/32/20 18/28/20 21/31/20 22/33/20
f 17/29/21 13/34/21 20/30/21
f 21/31/22 20/30/22 23/35/22 24/36/22
f 22/33/23 21/31/23 24/36/23 25/37/23
f 20/30/24 13/38/24 23/35/24
f 25/37/25 24/36/25 27/2/25 28/1/25
f 23/35/26 13/39/26 26/5/26
f 3/4/27 6/10/27 9/13/27 12/17/27 16/21/27 19/32/27 22/33/27 25/37/27 28/1/27
f 24/36/28 23/35/28 26/5/28 27/2/28
f 56/1/1 55/2/1 30/3/1 31/4/1
f 54/5/2 41/6/2 29/7/2
f 55/2/3 54/5/3 29/7/3 30/3/3
f 30/3/4 29/7/4 32/8/4 33/9/4
f 31/4/5 30/3/5 33/9/5 34/10/5
f 29/7/6 41/11/6 32/8/6
f 34/10/7 33/9/7 36/12/7 37/13/7
f 32/8/8 41/14/8 35/15/8
f 33/9/9 32/8/9 35/15/9 36/12/9
f 37/13/10 36/12/10 39/16/10 40/17/10
f 35/15/11 41/18/11 38/19/11
f 36/12/12 35/15/12 38/19/12 39/16/12
f 40/17/13 39/16/13 43/20/13 44/21/13
f 38/19/14 41/22/14 42/23/14
f 39/16/15 38/19/15 42/23/15 43/20/15
f 43/20/16 42/23/16 45/24/16 46/25/16
f 44/21/17 43/20/17 46/25/17 47/26/17
f 42/23/18 41/27/18 45/24/18
f 46/28/19 45/29/19 48/30/19 49/31/19
f 47/32/20 46/28/20 49/31/20 50/33/20
f 45/29/21 41/34/21 48/30/21
f 49/31/22 48/30/22 51/35/22 52/36/22
f 50/33/23 49/31/23 52/36/23 53/37/23
f 48/30/24 41/38/24 51/35/24
f 53/37/25 52/36/25 55/2/25 56/1/25
f 51/35/26 41/39/26 54/5/26
f 31/4/27 34/10/27 37/13/27 40/17/27 44/21/27 47/32/27 50/33/27 53/37/27 56/1/27
f 52/36/28 51/35/28 54/5/28 55/2/28
f 84/1/1 83/2/1 58/3/1 59/4/1
f 82/5/2 69/6/2 57/7/2
f 83/2/3 82/5/3 57/7/3 58/3/3
f 58/3/4 57/7/4 60/8/4 61/9/4
f 59/4/5 58/3/5 61/9/5 62/10/5
f 57/7/6 69/11/6 60/8/6
f 62/10/7 61/9/7 64/12/7 65/13/7
f 60/8/8 69/14/8 63/15/8
f 61/9/9 60/8/9 63/15/9 64/12/9
f 65/13/10 64/12/10 67/16/10 68/17/10
f 63/15/11 69/18/11 66/19/11
f 64/12/12 63/15/12 66/19/12 67/16/12
f 68/17/13 67/16/13 71/20/13 72/21/13
f 66/19/14 69/22/14 70/23/14
f 67/16/15 66/19/15 70/23/15 71/20/15
f 71/20/16 70/23/16 73/24/16 74/25/16
f 72/21/17 71/20/17 74/25/17 75/26/17
f 70/23/18 69/27/18 73/24/18
f 74/28/19 73/29/19 76/30/19 77/31/19
f 75/32/20 74/28/20 77/31/20 78/33/20
f 73/29/21 69/34/21 76/30/21
f 77/31/22 76/30/22 79/35/22 80/36/22
f 78/33/23 77/31/23 80/36/23 81/37/23
f 76/30/24 69/38/24 79/35/24
f 81/37/25 80/36/25 83/2/25 84/1/25
f 79/35/26 69/39/26 82/5/26
f 59/4/27 62/10/27 65/13/27 68/17/27 72/21/27 75/32/27 78/33/27 81/37/27 84/1/27
f 80/36/28 79/35/28 82/5/28 83/2/28
